<?xml version="1.0" standalone="no"?>
<!DOCTYPE svg PUBLIC "-//W3C//DTD SVG 20010904//EN"
 "http://www.w3.org/TR/2001/REC-SVG-20010904/DTD/svg10.dtd">
<svg version="1.0" xmlns="http://www.w3.org/2000/svg"
 width="514.000000pt" height="499.000000pt" viewBox="0 0 514.000000 499.000000"
 preserveAspectRatio="xMidYMid meet">

<g transform="translate(0.000000,499.000000) scale(0.100000,-0.100000)"
fill="#000000" stroke="none">
<path d="M0 2495 l0 -2495 2570 0 2570 0 0 2495 0 2495 -2570 0 -2570 0 0
-2495z m2798 1410 c446 -63 824 -307 1046 -675 126 -208 196 -483 183 -720
-11 -190 -45 -324 -126 -495 -61 -127 -103 -193 -195 -303 -371 -440 -1005
-611 -1581 -425 -441 141 -795 500 -915 927 -170 606 119 1242 697 1538 275
141 591 196 891 153z m-643 -2680 c255 -73 539 -82 783 -25 46 11 86 20 88 20
3 0 3 -54 2 -121 l-3 -121 -290 -157 -290 -157 -285 157 -285 157 -3 180 -2
180 97 -43 c54 -24 138 -56 188 -70z"/>
<path d="M1463 2324 c-3 -8 -2 -19 3 -24 14 -13 712 -172 724 -165 12 7 13 32
2 39 -9 5 -698 166 -713 166 -5 0 -12 -7 -16 -16z"/>
<path d="M2413 2114 c-3 -8 -2 -19 3 -24 12 -12 1025 -222 1041 -216 15 6 17
32 4 40 -9 6 -1014 216 -1032 216 -5 0 -12 -7 -16 -16z"/>
</g>
</svg>
