<?xml version="1.0" standalone="no"?>
<!DOCTYPE svg PUBLIC "-//W3C//DTD SVG 20010904//EN"
 "http://www.w3.org/TR/2001/REC-SVG-20010904/DTD/svg10.dtd">
<svg version="1.0" xmlns="http://www.w3.org/2000/svg"
 width="805.000000pt" height="310.000000pt" viewBox="0 0 805.000000 310.000000"
 preserveAspectRatio="xMidYMid meet">

<g transform="translate(0.000000,310.000000) scale(0.100000,-0.100000)"
fill="#000000" stroke="none">
<path d="M1275 2774 c-424 -80 -766 -357 -905 -734 -57 -155 -73 -240 -73
-395 0 -117 4 -157 26 -246 54 -220 147 -387 302 -544 159 -160 331 -261 555
-323 89 -25 108 -27 300 -26 176 0 216 3 280 21 226 63 395 156 545 301 121
116 157 165 241 326 97 187 139 466 99 671 -46 243 -138 425 -300 593 -168
176 -353 282 -600 343 -110 28 -358 35 -470 13z m443 -488 c112 -36 191 -85
277 -170 128 -127 188 -267 189 -441 1 -247 -142 -467 -377 -582 -172 -84
-412 -89 -592 -13 -122 52 -244 159 -313 276 -76 128 -102 253 -83 399 18 135
68 237 167 345 96 103 190 157 349 201 102 28 269 21 383 -15z m-460 -1242
c140 -45 302 -52 430 -18 21 6 22 4 22 -52 0 -68 16 -53 -181 -157 l-106 -56
-30 19 c-17 10 -66 37 -109 60 -148 80 -134 63 -134 158 0 76 2 83 18 77 9 -4
50 -18 90 -31z"/>
<path d="M960 1552 c0 -8 74 -28 234 -63 102 -22 116 -23 116 -9 0 6 -8 10
-17 10 -10 0 -83 16 -163 35 -154 37 -170 40 -170 27z"/>
<path d="M1410 1450 c0 -5 3 -10 8 -10 4 0 117 -22 251 -50 135 -27 247 -47
250 -44 10 10 -20 21 -92 34 -40 6 -143 27 -230 46 -172 37 -187 39 -187 24z"/>
<path d="M2941 2554 l-31 -26 0 -904 0 -905 25 -24 24 -25 1719 0 1719 0 27
21 26 20 0 908 0 908 -26 24 -26 24 -1713 3 -1713 2 -31 -26z m979 -821 l1
-108 102 108 c101 108 102 108 144 105 l42 -3 -94 -100 c-52 -55 -94 -103 -95
-107 0 -3 20 -28 44 -55 24 -26 68 -77 99 -113 l56 -65 -46 -3 c-25 -2 -49 1
-52 6 -3 5 -35 42 -71 81 -36 40 -69 80 -73 88 -8 12 -13 11 -33 -8 -21 -20
-24 -31 -24 -96 l0 -73 -35 0 -35 0 0 225 0 225 35 0 35 0 0 -107z m1518 80
c-3 -25 -7 -28 -43 -28 -36 0 -40 3 -43 28 -3 26 -2 27 43 27 45 0 46 -1 43
-27z m-921 -96 c43 -23 53 -60 53 -203 l0 -124 -40 0 c-22 0 -40 4 -40 9 0 6
-12 3 -27 -5 -16 -7 -51 -14 -80 -14 -41 0 -58 5 -82 26 -59 50 -48 144 21
180 18 9 63 19 100 22 58 4 68 7 68 23 0 28 -36 59 -68 59 -16 0 -50 -6 -75
-14 -51 -15 -57 -13 -57 20 0 18 7 25 28 30 15 3 32 8 37 10 22 9 133 -4 162
-19z m397 7 c19 -9 39 -28 45 -41 6 -14 11 -82 11 -158 l0 -135 -35 0 -35 0 0
123 c0 95 -4 128 -16 145 -19 27 -64 29 -105 5 l-29 -17 0 -128 0 -128 -35 0
-35 0 0 170 0 170 34 0 c19 0 36 -5 38 -10 2 -7 16 -6 38 4 46 20 81 20 124 0z
m236 -10 c0 -12 5 -14 18 -9 35 16 109 28 126 22 12 -5 16 -16 14 -34 -3 -26
-6 -28 -40 -25 -22 2 -52 -5 -77 -18 l-41 -20 0 -120 0 -120 -35 0 -35 0 0
170 0 170 35 0 c25 0 35 -4 35 -16z m280 -154 l0 -170 -35 0 -35 0 0 170 0
170 35 0 35 0 0 -170z"/>
<path d="M4383 1545 c-36 -15 -51 -52 -34 -83 16 -30 57 -36 99 -15 34 17 37
22 40 66 l3 47 -38 0 c-21 -1 -52 -7 -70 -15z"/>
</g>
</svg>
